<svg width="60" height="59" viewBox="0 0 60 59" fill="none" xmlns="http://www.w3.org/2000/svg">
<path d="M30.0066 14.38C21.6354 14.38 14.8831 21.1337 14.8831 29.5068C14.8831 37.8799 21.6354 44.6337 30.0066 44.6337C38.3778 44.6337 45.1301 37.8799 45.1301 29.5068C45.1301 21.1337 38.3778 14.38 30.0066 14.38ZM30.0066 39.3413C24.5969 39.3413 20.1743 34.9309 20.1743 29.5068C20.1743 24.0828 24.5837 19.6724 30.0066 19.6724C35.4295 19.6724 39.8388 24.0828 39.8388 29.5068C39.8388 34.9309 35.4163 39.3413 30.0066 39.3413ZM49.2762 13.7612C49.2762 15.7228 47.6967 17.2895 45.7487 17.2895C43.7875 17.2895 42.2212 15.7097 42.2212 13.7612C42.2212 11.8128 43.8007 10.2329 45.7487 10.2329C47.6967 10.2329 49.2762 11.8128 49.2762 13.7612ZM59.2927 17.3422C59.0689 12.6158 57.9896 8.4293 54.5279 4.98C51.0794 1.53071 46.8938 0.451163 42.1685 0.214188C37.2985 -0.0622815 22.7015 -0.0622815 17.8315 0.214188C13.1194 0.437997 8.93374 1.51755 5.47206 4.96684C2.01037 8.41613 0.944228 12.6027 0.707306 17.329C0.430898 22.2001 0.430898 36.8004 0.707306 41.6715C0.931065 46.3978 2.01037 50.5844 5.47206 54.0337C8.93374 57.483 13.1062 58.5625 17.8315 58.7995C22.7015 59.076 37.2985 59.076 42.1685 58.7995C46.8938 58.5757 51.0794 57.4961 54.5279 54.0337C57.9765 50.5844 59.0558 46.3978 59.2927 41.6715C59.5691 36.8004 59.5691 22.2133 59.2927 17.3422ZM53.0011 46.8981C51.9745 49.4785 49.987 51.4664 47.394 52.5065C43.5111 54.0468 34.2975 53.6914 30.0066 53.6914C25.7157 53.6914 16.4889 54.0337 12.6192 52.5065C10.0394 51.4796 8.05187 49.4917 7.01205 46.8981C5.47206 43.0144 5.82744 33.7987 5.82744 29.5068C5.82744 25.215 5.48522 15.9861 7.01205 12.1156C8.03871 9.53518 10.0262 7.54722 12.6192 6.50717C16.5021 4.96684 25.7157 5.3223 30.0066 5.3223C34.2975 5.3223 43.5243 4.98 47.394 6.50717C49.9738 7.53406 51.9613 9.52201 53.0011 12.1156C54.5411 15.9993 54.1857 25.215 54.1857 29.5068C54.1857 33.7987 54.5411 43.0275 53.0011 46.8981Z" fill="#F4EFE6"/>
</svg>
