<svg width="60" height="59" viewBox="0 0 60 59" fill="none" xmlns="http://www.w3.org/2000/svg">
<g clip-path="url(#clip0_140_563)">
<path d="M54.9238 0.00683594H4.91274C2.46122 0.00683594 0.5 1.9735 0.5 4.26795V54.7457C0.5 57.0402 2.46122 59.0068 4.91274 59.0068H55.0873C57.5388 59.0068 59.5 57.0402 59.5 54.7457V4.26795C59.3366 1.9735 57.3753 0.00683594 54.9238 0.00683594ZM17.9875 50.3207H15.1621C11.8483 50.3207 9.16205 47.6344 9.16205 44.3207V26.4629C9.16205 24.0709 11.1011 22.1318 13.4931 22.1318C15.885 22.1318 17.8241 24.0709 17.8241 26.4629V50.1573C17.8241 50.2476 17.8973 50.3207 17.9875 50.3207ZM13.5748 18.1985C10.7964 18.1985 8.50831 15.9041 8.50831 13.1179C8.50831 10.3318 10.7964 8.20128 13.5748 8.20128C16.3532 8.20128 18.6413 10.4957 18.6413 13.2818C18.6413 16.0679 16.3532 18.1985 13.5748 18.1985ZM50.6745 45.9897C50.6745 48.3817 48.7355 50.3207 46.3435 50.3207C43.9515 50.3207 42.0125 48.3817 42.0125 45.9897V36.5541C42.0125 33.2763 42.0125 29.0152 37.4363 29.0152C32.8601 29.0152 32.2064 32.6207 32.2064 36.2263V45.7441C32.2064 48.1812 30.2307 50.1568 27.7936 50.1568C25.3565 50.1568 23.3809 48.1812 23.3809 45.7441V26.2994C23.3809 23.9977 25.2468 22.1318 27.5485 22.1318H29.8313C30.8722 22.1318 31.7161 22.9757 31.7161 24.0166V25.8003C31.7161 25.8561 31.7613 25.9013 31.817 25.9013C31.8553 25.9013 31.89 25.88 31.9075 25.8459C33.071 23.5701 35.9996 21.3124 40.2147 21.3124C49.0402 21.3124 50.6745 27.2124 50.6745 34.7513V45.9897Z" fill="#F4EFE6"/>
</g>
<defs>
<clipPath id="clip0_140_563">
<rect width="59" height="59" fill="white" transform="translate(0.5 0.00683594)"/>
</clipPath>
</defs>
</svg>
