<svg width="60" height="59" viewBox="0 0 60 59" fill="none" xmlns="http://www.w3.org/2000/svg">
<path d="M59.5 6.32826V52.6854C59.5 56.1754 56.6685 59.0068 53.1786 59.0068H20.8339C22.1246 56.847 23.7839 53.739 24.4424 51.1972C24.8375 49.6827 26.4574 43.5062 26.4574 43.5062C27.5109 45.5211 30.5926 47.22 33.8719 47.22C43.6306 47.22 50.65 38.2515 50.65 27.11C50.65 16.4294 41.9317 8.43541 30.7112 8.43541C16.7513 8.43541 9.35 17.799 9.35 28.0055C9.35 32.7466 11.8786 38.6466 15.9085 40.5298C16.5275 40.8196 16.8435 40.6879 16.9884 40.0952C17.0938 39.6475 17.6469 37.4481 17.8839 36.4341C17.9629 36.1048 17.9234 35.8283 17.66 35.5122C16.3299 33.8923 15.25 30.916 15.25 28.1372C15.25 20.9992 20.6496 14.0984 29.8551 14.0984C37.7964 14.0984 43.3672 19.5111 43.3672 27.2548C43.3672 35.9995 38.9554 42.0575 33.2002 42.0575C30.0263 42.0575 27.6558 39.4367 28.4065 36.2102C29.3152 32.3647 31.0799 28.2162 31.0799 25.4374C31.0799 18.4575 21.1368 19.4189 21.1368 28.7298C21.1368 31.5876 22.0982 33.5367 22.0982 33.5367C17.9629 51.026 17.344 51.2499 18.2 58.9015L18.4897 59.0068H6.82143C3.33147 59.0068 0.5 56.1754 0.5 52.6854V6.32826C0.5 2.83831 3.33147 0.00683594 6.82143 0.00683594H53.1786C56.6685 0.00683594 59.5 2.83831 59.5 6.32826Z" fill="#F4EFE6"/>
</svg>
